<?xml version="1.0" encoding="utf-8"?>
<!-- Generator: Adobe Illustrator 19.2.1, SVG Export Plug-In . SVG Version: 6.00 Build 0)  -->
<svg version="1.1" id="Calque_1" xmlns="http://www.w3.org/2000/svg" xmlns:xlink="http://www.w3.org/1999/xlink" x="0px" y="0px"
	 viewBox="0 0 100 100" style="enable-background:new 0 0 100 100;" xml:space="preserve">
<g>
	<path d="M12.4,15.5V3.1c0-1.7,1.4-3.1,3.1-3.1c1.7,0,3.1,1.4,3.1,3.1v12.4c0,1.7-1.4,3.1-3.1,3.1C13.8,18.7,12.4,17.3,12.4,15.5z
		 M65.3,18.7c1.7,0,3.1-1.4,3.1-3.1V3.1C68.4,1.4,67,0,65.3,0c-1.7,0-3.1,1.4-3.1,3.1v12.4C62.2,17.3,63.6,18.7,65.3,18.7z
		 M99.5,74.6c0,13.7-11.1,24.9-24.9,24.9c-13.7,0-24.9-11.1-24.9-24.9c0-13.7,11.1-24.9,24.9-24.9C88.3,49.7,99.5,60.9,99.5,74.6z
		 M93.3,74.6c0-10.3-8.4-18.7-18.7-18.7C64.3,56,56,64.3,56,74.6c0,10.3,8.4,18.7,18.7,18.7C84.9,93.3,93.3,84.9,93.3,74.6z
		 M24.9,37.3H12.4v12.4h12.4V37.3z M12.4,68.4h12.4V56H12.4V68.4z M31.1,49.7h12.4V37.3H31.1V49.7z M31.1,68.4h12.4V56H31.1V68.4z
		 M6.2,74V31.1h68.4v12.4h6.2V19.3c0-3.8-3-6.8-6.7-6.8h-2.6v3.1c0,3.4-2.8,6.2-6.2,6.2c-3.4,0-6.2-2.8-6.2-6.2v-3.1H21.8v3.1
		c0,3.4-2.8,6.2-6.2,6.2c-3.4,0-6.2-2.8-6.2-6.2v-3.1H6.7C3,12.4,0,15.5,0,19.3V74c0,3.8,3,6.8,6.7,6.8h36.8v-6.2H6.7
		C6.5,74.6,6.2,74.3,6.2,74z M62.2,49.7V37.3H49.7v12.4H62.2z M83.9,74.6h-9.3v-9.3c0-1.7-1.4-3.1-3.1-3.1s-3.1,1.4-3.1,3.1v12.4
		c0,1.7,1.4,3.1,3.1,3.1h12.4c1.7,0,3.1-1.4,3.1-3.1C87,76,85.7,74.6,83.9,74.6z"/>
</g>
</svg>
