<?xml version="1.0" encoding="iso-8859-1"?>
<!-- Generator: Adobe Illustrator 16.0.0, SVG Export Plug-In . SVG Version: 6.00 Build 0)  -->
<!DOCTYPE svg PUBLIC "-//W3C//DTD SVG 1.1//EN" "http://www.w3.org/Graphics/SVG/1.1/DTD/svg11.dtd">
<svg version="1.1" id="Capa_1" xmlns="http://www.w3.org/2000/svg" xmlns:xlink="http://www.w3.org/1999/xlink" x="0px" y="0px"
	 width="396px" height="396px" viewBox="0 0 396 396" style="enable-background:new 0 0 396 396;" xml:space="preserve">
<g>
	<g>
		<path d="M386,182.665h-11.199c-7.355-85.397-76.067-154.108-161.467-161.466V10c0-5.522-4.479-10-10-10h-10.669
			c-5.522,0-10,4.478-10,10v11.199C97.268,28.556,28.557,97.268,21.199,182.665H10c-5.522,0-10,4.478-10,10v10.67
			c0,5.522,4.478,10,10,10h11.199c7.357,85.396,76.068,154.108,161.466,161.466V386c0,5.521,4.478,10,10,10h10.669
			c5.521,0,10-4.479,10-10v-11.199c85.397-7.355,154.109-76.067,161.467-161.466H386c5.522,0,10-4.478,10-10v-10.67
			C396,187.143,391.522,182.665,386,182.665z M213.334,343.992v-40.064c47.104-6.761,83.832-43.487,90.594-90.593h40.064
			c-3.481,33.285-18.407,64.572-42.247,88.411C277.905,325.586,246.618,340.512,213.334,343.992z M182.665,343.992
			c-33.285-3.481-64.572-18.407-88.411-42.246s-38.765-55.126-42.246-88.411h40.064c6.761,47.103,43.49,83.832,90.593,90.593
			V343.992L182.665,343.992z M182.665,52.008v40.064c-47.103,6.761-83.832,43.49-90.593,90.593H52.008
			c3.481-33.285,18.407-64.572,42.246-88.411S149.38,55.489,182.665,52.008z M124.108,198c0-40.744,33.147-73.892,73.892-73.892
			s73.892,33.147,73.892,73.892S238.744,271.893,198,271.893S124.108,238.744,124.108,198z M213.334,52.008
			c33.284,3.48,64.571,18.406,88.411,42.246c23.84,23.839,38.766,55.126,42.247,88.411h-40.064
			c-6.762-47.103-43.488-83.832-90.594-90.593V52.008L213.334,52.008z"/>
	</g>
</g>
<g>
</g>
<g>
</g>
<g>
</g>
<g>
</g>
<g>
</g>
<g>
</g>
<g>
</g>
<g>
</g>
<g>
</g>
<g>
</g>
<g>
</g>
<g>
</g>
<g>
</g>
<g>
</g>
<g>
</g>
</svg>
