<?xml version="1.0" encoding="utf-8"?>
<!-- Generator: Adobe Illustrator 19.2.1, SVG Export Plug-In . SVG Version: 6.00 Build 0)  -->
<svg version="1.1" id="Calque_1" xmlns="http://www.w3.org/2000/svg" xmlns:xlink="http://www.w3.org/1999/xlink" x="0px" y="0px"
	 viewBox="0 0 100 100" style="enable-background:new 0 0 100 100;" xml:space="preserve">
<g>
	<g>
		<path d="M97.5,46.1h-2.8C92.8,24.6,75.4,7.2,53.9,5.4V2.5c0-1.4-1.1-2.5-2.5-2.5h-2.7c-1.4,0-2.5,1.1-2.5,2.5v2.8
			C24.6,7.2,7.2,24.6,5.4,46.1H2.5c-1.4,0-2.5,1.1-2.5,2.5v2.7c0,1.4,1.1,2.5,2.5,2.5h2.8c1.9,21.6,19.2,38.9,40.8,40.8v2.8
			c0,1.4,1.1,2.5,2.5,2.5h2.7c1.4,0,2.5-1.1,2.5-2.5v-2.8c21.6-1.9,38.9-19.2,40.8-40.8h2.8c1.4,0,2.5-1.1,2.5-2.5v-2.7
			C100,47.3,98.9,46.1,97.5,46.1z M53.9,86.9V76.7C65.8,75,75,65.8,76.7,53.9h10.1c-0.9,8.4-4.6,16.3-10.7,22.3
			C70.2,82.2,62.3,86,53.9,86.9z M46.1,86.9c-8.4-0.9-16.3-4.6-22.3-10.7c-6-6-9.8-13.9-10.7-22.3h10.1C25,65.8,34.2,75,46.1,76.7
			V86.9L46.1,86.9z M46.1,13.1v10.1C34.2,25,25,34.2,23.3,46.1H13.1c0.9-8.4,4.6-16.3,10.7-22.3S37.7,14,46.1,13.1z M31.3,50
			c0-10.3,8.4-18.7,18.7-18.7S68.7,39.7,68.7,50S60.3,68.7,50,68.7S31.3,60.3,31.3,50z M53.9,13.1c8.4,0.9,16.3,4.6,22.3,10.7
			c6,6,9.8,13.9,10.7,22.3H76.7C75,34.2,65.8,25,53.9,23.3L53.9,13.1L53.9,13.1z"/>
	</g>
</g>
</svg>
