<?xml version="1.0" encoding="utf-8"?>
<!-- Generator: Adobe Illustrator 19.2.1, SVG Export Plug-In . SVG Version: 6.00 Build 0)  -->
<svg version="1.1" id="Calque_1" xmlns="http://www.w3.org/2000/svg" xmlns:xlink="http://www.w3.org/1999/xlink" x="0px" y="0px"
	 viewBox="0 0 100 100" style="enable-background:new 0 0 100 100;" xml:space="preserve">
<g>
	<path d="M100,62.4c0,2.2-0.6,4.2-1.6,6L66.9,33.1L98.1,5.9c1.2,1.9,1.9,4.2,1.9,6.6L100,62.4L100,62.4z M50.1,39.5l43.4-38
		c-1.8-1-3.8-1.6-5.9-1.6H12.6c-2.2,0-4.2,0.6-5.9,1.6L50.1,39.5z M62.2,37.2l-10,8.8c-0.6,0.5-1.3,0.8-2.1,0.8
		c-0.7,0-1.5-0.3-2.1-0.8l-10-8.8L6,73c1.9,1.2,4.2,1.9,6.6,1.9h74.9c2.4,0,4.7-0.7,6.6-1.9L62.2,37.2z M2.1,5.9
		C0.9,7.8,0.1,10,0.1,12.5v49.9c0,2.2,0.6,4.2,1.6,6l31.5-35.3L2.1,5.9z"/>
</g>
</svg>
