<?xml version="1.0" encoding="utf-8"?>
<!-- Generator: Adobe Illustrator 19.2.1, SVG Export Plug-In . SVG Version: 6.00 Build 0)  -->
<svg version="1.1" id="Calque_1" xmlns="http://www.w3.org/2000/svg" xmlns:xlink="http://www.w3.org/1999/xlink" x="0px" y="0px"
	 viewBox="0 0 100 100" style="enable-background:new 0 0 100 100;" xml:space="preserve">
<g>
	<path d="M92.3,59.5c4.4-6.2,6.8-13.4,6.8-20.9C99.1,17.4,79.8,0,56.2,0C42.5,0,29.8,5.9,21.8,15.6c6.4-3,13.6-4.7,21.2-4.7
		c25.5,0,46.3,18.8,46.3,42c0,9.1-3.2,17.5-8.6,24.4c8.2,3.1,16.3,4.3,16.7,4.4c0.1,0,0.2,0,0.2,0c0.6,0,1.2-0.3,1.5-0.9
		c0.3-0.6,0.2-1.4-0.3-1.9C95.4,75.6,93.2,68.8,92.3,59.5z"/>
	<path d="M42.9,14.2c-23.7,0-43,17.4-43,38.7c0,7.4,2.3,14.6,6.8,20.9c-0.8,9.2-3.1,16-6.3,19.3c-0.5,0.5-0.6,1.3-0.3,1.9
		c0.3,0.6,0.9,0.9,1.5,0.9c0.1,0,0.2,0,0.2,0c0.6-0.1,13.9-2,23.7-7.6c5.5,2.2,11.4,3.3,17.4,3.3c23.7,0,43-17.4,43-38.7
		S66.6,14.2,42.9,14.2z M21.5,59.5c-3.6,0-6.6-3-6.6-6.6c0-3.6,3-6.6,6.6-6.6s6.6,3,6.6,6.6S25.1,59.5,21.5,59.5z M42.9,59.5
		c-3.6,0-6.6-3-6.6-6.6c0-3.6,3-6.6,6.6-6.6c3.6,0,6.6,3,6.6,6.6S46.6,59.5,42.9,59.5z M64.4,59.5c-3.6,0-6.6-3-6.6-6.6
		c0-3.6,3-6.6,6.6-6.6c3.6,0,6.6,3,6.6,6.6S68.1,59.5,64.4,59.5z"/>
</g>
</svg>
