<?xml version="1.0" encoding="utf-8"?>
<!-- Generator: Adobe Illustrator 19.2.1, SVG Export Plug-In . SVG Version: 6.00 Build 0)  -->
<svg version="1.1" id="Calque_1" xmlns="http://www.w3.org/2000/svg" xmlns:xlink="http://www.w3.org/1999/xlink" x="0px" y="0px"
	 viewBox="0 0 100 100" style="enable-background:new 0 0 100 100;" xml:space="preserve">
<g>
	<path d="M72.9,46.4c-3.9,5.4-7.3,9.3-9.3,9.8c-8,2.2-18.6-4.8-23.4,0c-7,7-9.4,18.8-9.4,18.8l-11,6.3C32.6,42.8,61.2,12.6,99.7-0.2
		c0,0-1.7,5.9-6.3,13.8c-3.9,1-8,1.8-11.6,1.8c1.6,1.8,4.5,3.5,7.8,4.6c-1.1,1.8-2.2,3.7-3.3,5.6C82,26.9,77.1,28,73,28
		c1.8,2,5.2,3.8,8.9,5c-0.7,1.1-1.4,2.3-2.1,3.4c-5.2,1.8-13,4.2-19.2,4.2C62.8,43.1,67.9,45.4,72.9,46.4z M79.3,65.7v26.7L6.2,92.9
		l0.3-73.4l26.6-0.3L50,12.3H-0.5V100h87.7V50L79.3,65.7z"/>
</g>
</svg>
