<?xml version="1.0" encoding="utf-8"?>
<!-- Generator: Adobe Illustrator 19.2.1, SVG Export Plug-In . SVG Version: 6.00 Build 0)  -->
<svg version="1.1" id="Calque_1" xmlns="http://www.w3.org/2000/svg" xmlns:xlink="http://www.w3.org/1999/xlink" x="0px" y="0px"
	 viewBox="0 0 100 100" style="enable-background:new 0 0 100 100;" xml:space="preserve">
<g>
	<g>
		<path d="M4.6,59.3C3.1,43.5,9.9,29.1,21.1,20c4.4-3.6,10.9-0.5,10.9,5.1l0,0c0,2.1-1,4-2.6,5.2c-7.9,6.5-12.7,16.7-11.6,27.9
			C19.3,73,31.1,84.9,45.8,86.5C64.9,88.7,81.1,73.7,81.1,55c0-9.9-4.6-18.8-11.8-24.6c-1.6-1.3-2.6-3.2-2.6-5.2l0,0
			c0-5.6,6.4-8.7,10.8-5.2C87.8,28.2,94.4,40.8,94.4,55c0,25.9-22,46.8-48.3,44.9C24.3,98.3,6.6,81,4.6,59.3z M49.4,0
			c-3.7,0-6.6,3-6.6,6.6v30.6c0,3.7,3,6.6,6.6,6.6c3.7,0,6.6-3,6.6-6.6V6.6C56,3,53,0,49.4,0z"/>
	</g>
</g>
</svg>
