<?xml version="1.0" encoding="utf-8"?>
<!-- Generator: Adobe Illustrator 19.2.1, SVG Export Plug-In . SVG Version: 6.00 Build 0)  -->
<svg version="1.1" id="Calque_1" xmlns="http://www.w3.org/2000/svg" xmlns:xlink="http://www.w3.org/1999/xlink" x="0px" y="0px"
	 viewBox="0 0 100 100" style="enable-background:new 0 0 100 100;" xml:space="preserve">
<g>
	<path d="M66.8,11.4c-15.3-15.3-40.1-15.3-55.3,0c-15.3,15.3-15.3,40.1,0,55.3c13.6,13.6,34.7,15,50,4.4c0.3,1.5,1.1,3,2.2,4.1
		l22.2,22.2c3.2,3.2,8.5,3.2,11.7,0c3.2-3.2,3.2-8.5,0-11.7L75.4,63.7c-1.2-1.2-2.6-1.9-4.1-2.2C81.8,46.2,80.4,25,66.8,11.4z
		 M59.8,59.8c-11.4,11.4-29.9,11.4-41.3,0c-11.4-11.4-11.4-29.9,0-41.3c11.4-11.4,29.9-11.4,41.3,0C71.2,29.8,71.2,48.4,59.8,59.8z"
		/>
</g>
</svg>
