<?xml version="1.0" encoding="utf-8"?>
<!-- Generator: Adobe Illustrator 19.2.1, SVG Export Plug-In . SVG Version: 6.00 Build 0)  -->
<svg version="1.1" id="Calque_1" xmlns="http://www.w3.org/2000/svg" xmlns:xlink="http://www.w3.org/1999/xlink" x="0px" y="0px"
	 viewBox="0 0 100 100" style="enable-background:new 0 0 100 100;" xml:space="preserve">
<g>
	<circle cx="63.1" cy="32.9" r="5.3"/>
	<path d="M97.6,27.6h-6c-0.5-1.5-1.1-2.9-1.8-4.3l4.2-4.2c0.9-0.9,0.9-2.4,0-3.4l-9.8-9.8c-0.9-0.9-2.4-0.9-3.4,0l-4.2,4.2
		c-1.4-0.7-2.8-1.3-4.3-1.8v-6C72.4,1.1,71.3,0,70,0H56.1c-1.3,0-2.4,1.1-2.4,2.4v6c-1.5,0.5-2.9,1.1-4.3,1.8l-4.2-4.2
		c-0.4-0.4-1.1-0.7-1.7-0.7c-0.6,0-1.2,0.3-1.7,0.7L32,15.7c-0.9,0.9-0.9,2.4,0,3.4l4.2,4.2c-0.7,1.4-1.3,2.8-1.8,4.3h-6
		c-1.3,0-2.4,1.1-2.4,2.4v13.8c0,1.3,1.1,2.4,2.4,2.4h6c0.5,1.5,1.1,2.9,1.8,4.3L32,54.8c-0.4,0.4-0.7,1.1-0.7,1.7
		c0,0.6,0.3,1.2,0.7,1.7l9.8,9.8c0.9,0.9,2.4,0.9,3.4,0l4.2-4.2c1.4,0.7,2.8,1.3,4.3,1.8v6c0,1.3,1.1,2.4,2.4,2.4H70
		c1.3,0,2.4-1.1,2.4-2.4v-6c1.5-0.5,2.9-1.1,4.3-1.8l4.2,4.2c0.9,0.9,2.4,0.9,3.4,0l9.8-9.8c0.9-0.9,0.9-2.4,0-3.4l-4.2-4.2
		c0.7-1.4,1.3-2.8,1.8-4.3h6c1.3,0,2.4-1.1,2.4-2.4V30C100,28.7,98.9,27.6,97.6,27.6L97.6,27.6z M63.1,53.3c-9,0-16.4-7.4-16.4-16.4
		S54,20.6,63.1,20.6s16.4,7.4,16.4,16.4S72.1,53.3,63.1,53.3z"/>
	<path d="M37.7,72.7h-2.2c-0.1-0.3-0.2-0.5-0.3-0.8l1.6-1.6c0.9-0.9,0.9-2.4,0-3.4l-5-5c-0.9-0.9-2.4-0.9-3.4,0l-1.6,1.6
		c-0.3-0.1-0.5-0.2-0.8-0.3V61c0-1.3-1.1-2.4-2.4-2.4h-7.1c-1.3,0-2.4,1.1-2.4,2.4v2.2c-0.3,0.1-0.5,0.2-0.8,0.3L11.7,62
		C10.8,61,9.3,61,8.4,62l-5,5c-0.9,0.9-0.9,2.4,0,3.4L5,71.9c-0.1,0.3-0.2,0.5-0.3,0.8H2.4c-1.3,0-2.4,1.1-2.4,2.4v7.1
		c0,1.3,1.1,2.4,2.4,2.4h2.2c0.1,0.3,0.2,0.5,0.3,0.8l-1.6,1.6c-0.9,0.9-0.9,2.4,0,3.4l5,5c0.9,0.9,2.4,0.9,3.4,0l1.6-1.6
		c0.3,0.1,0.5,0.2,0.8,0.3v2.2c0,1.3,1.1,2.4,2.4,2.4h7.1c1.3,0,2.4-1.1,2.4-2.4v-2.2c0.3-0.1,0.5-0.2,0.8-0.3l1.6,1.6
		c0.9,0.9,2.4,0.9,3.4,0l5-5c0.9-0.9,0.9-2.4,0-3.4l-1.6-1.6c0.1-0.3,0.2-0.5,0.3-0.8h2.2c1.3,0,2.4-1.1,2.4-2.4v-7.1
		C40.1,73.8,39,72.7,37.7,72.7L37.7,72.7z M20.1,86.8c-4.5,0-8.2-3.7-8.2-8.2c0-4.5,3.7-8.2,8.2-8.2s8.2,3.7,8.2,8.2
		C28.2,83.1,24.6,86.8,20.1,86.8z"/>
	<path d="M68.9,41l-1.6-0.5l-4.3,2.1l-4.3-2.1L57.2,41c-1.7,0.6-2.8,2-3,3.8c2.2,2.4,5.4,4,8.9,4c3.5,0,6.7-1.5,8.9-4
		C71.8,43.1,70.6,41.6,68.9,41L68.9,41z"/>
</g>
</svg>
