<?xml version="1.0" encoding="utf-8"?>
<!-- Generator: Adobe Illustrator 19.2.1, SVG Export Plug-In . SVG Version: 6.00 Build 0)  -->
<svg version="1.1" id="Calque_1" xmlns="http://www.w3.org/2000/svg" xmlns:xlink="http://www.w3.org/1999/xlink" x="0px" y="0px"
	 viewBox="0 0 100 100" style="enable-background:new 0 0 100 100;" xml:space="preserve">
<g>
	<path d="M46.5,2.2C47.2,0.8,48.5,0,50,0s2.8,0.8,3.5,2.2l12.5,25.2c0.6,1.1,1.6,1.9,2.9,2.1l27.8,4c1.5,0.2,2.7,1.2,3.1,2.6
		c0.5,1.4,0.1,2.9-1,4L78.7,59.8c-0.9,0.9-1.3,2.2-1.1,3.4l4.7,27.7c0.3,1.5-0.4,2.9-1.5,3.8c-1.2,0.9-2.8,1-4.1,0.3L51.8,81.9
		c-1.1-0.6-2.5-0.6-3.6,0L23.3,95c-1.3,0.7-2.9,0.6-4.1-0.3c-1.2-0.9-1.8-2.3-1.5-3.8l4.7-27.7c0.2-1.3-0.2-2.5-1.1-3.4L1.2,40.2
		c-1.1-1-1.4-2.6-1-4s1.7-2.4,3.1-2.6l27.8-4c1.3-0.2,2.4-1,2.9-2.1L46.5,2.2z"/>
</g>
</svg>
