<?xml version="1.0" encoding="utf-8"?>
<!-- Generator: Adobe Illustrator 19.2.1, SVG Export Plug-In . SVG Version: 6.00 Build 0)  -->
<svg version="1.1" id="Calque_1" xmlns="http://www.w3.org/2000/svg" xmlns:xlink="http://www.w3.org/1999/xlink" x="0px" y="0px"
	 viewBox="0 0 100 100" style="enable-background:new 0 0 100 100;" xml:space="preserve">
<style type="text/css">
	.st0{fill:#010002;}
	.st1{fill:#E86464;}
	.st2{fill:#FFE6D2;}
	.st3{fill:#D2464B;}
	.st4{fill:#D7DCE1;}
	.st5{fill:#8C645F;}
	.st6{fill:#7D5050;}
	.st7{fill:#BEC3C8;}
</style>
<g>
	<g>
		<path class="st0" d="M31.5,83.3"/>
		<path class="st0" d="M0,74"/>
		<path class="st0" d="M97.4,2.5"/>
		<path class="st0" d="M100.2,10.7"/>
	</g>
</g>
<g>
	<path class="st1" d="M21.2,19.2c0-0.1,0.1-0.2,0.1-0.3C21.3,19,21.3,19.1,21.2,19.2z"/>
	<path class="st1" d="M20.7,20.6c0.1-0.2,0.1-0.3,0.2-0.5C20.8,20.2,20.7,20.4,20.7,20.6z"/>
	<path class="st1" d="M19.9,23.1c0.1-0.6,0.3-1.1,0.5-1.6C20.2,22,20.1,22.5,19.9,23.1z"/>
	<path class="st1" d="M21.8,17.8c0.1-0.2,0.2-0.4,0.3-0.6C22,17.4,21.9,17.6,21.8,17.8z"/>
	<path class="st1" d="M19.5,24.6c0.1-0.4,0.2-0.8,0.3-1.2C19.7,23.8,19.6,24.2,19.5,24.6z"/>
	<path class="st1" d="M26.9,10.2l0.1-0.1C26.9,10.1,26.9,10.2,26.9,10.2z"/>
	<path class="st1" d="M25.9,11.4c0.1-0.1,0.1-0.2,0.2-0.2C26,11.2,25.9,11.3,25.9,11.4z"/>
	<path class="st1" d="M28,9.1L28,9.1L28,9.1z"/>
	<path class="st1" d="M28,9.1c0.3-0.3,0.7-0.7,1-1C28.7,8.4,28.3,8.7,28,9.1z"/>
	<path class="st1" d="M18.9,29.4c0-0.5,0.1-1,0.1-1.5C19,28.4,18.9,28.9,18.9,29.4z"/>
	<path class="st1" d="M41.7,61c-0.1,0-0.3-0.1-0.4-0.1C41.4,60.9,41.6,61,41.7,61z"/>
	<path class="st1" d="M48.1,58.9V47.4c-5-2.9-10.1-7.9-12.6-12.9h-0.6l3.8,15.9C41.2,54,44.5,56.9,48.1,58.9z"/>
	<path class="st1" d="M34.6,58.1c-0.1-0.1-0.2-0.1-0.3-0.2C34.4,57.9,34.5,58,34.6,58.1z"/>
	<path class="st1" d="M35.3,58.5c-0.1-0.1-0.2-0.1-0.3-0.2C35.1,58.4,35.2,58.4,35.3,58.5z"/>
	<path class="st1" d="M36.9,59.2c-0.1-0.1-0.2-0.1-0.3-0.2C36.6,59.1,36.7,59.2,36.9,59.2z"/>
	<path class="st1" d="M43.4,61.4c-0.1,0-0.3-0.1-0.4-0.1C43.1,61.4,43.2,61.4,43.4,61.4z"/>
	<path class="st1" d="M37.3,59.5L37.3,59.5C37.3,59.4,37.3,59.4,37.3,59.5C37.3,59.4,37.3,59.4,37.3,59.5z"/>
	<path class="st1" d="M32.7,31L32.7,31h1.6c-0.2-0.8-0.3-1.7-0.3-2.5c0-5.3,4.2-9.6,9.4-9.6c2.6,0,4.9,1.1,6.6,2.8
		c1.7-1.7,4-2.8,6.6-2.8c5.2,0,9.4,4.3,9.4,9.6c0,0.8-0.1,1.6-0.3,2.5H81l0,0C81,13.9,67.1,0,49.9,0c1.9,0,3.7,0.2,5.5,0.5
		C42.5,3.1,32.7,15.7,32.7,31z"/>
	<path class="st1" d="M42.5,61.2c-0.1,0-0.3-0.1-0.4-0.1C42.3,61.2,42.4,61.2,42.5,61.2z"/>
	<path class="st1" d="M36.1,58.9c-0.1-0.1-0.2-0.1-0.3-0.2C35.9,58.8,36,58.8,36.1,58.9z"/>
	<path class="st1" d="M29.1,8c0.3-0.3,0.6-0.6,1-0.8C29.8,7.4,29.4,7.7,29.1,8z"/>
	<path class="st1" d="M44.2,61.6c-0.1,0-0.3-0.1-0.4-0.1C43.9,61.5,44.1,61.6,44.2,61.6z"/>
	<path class="st1" d="M30.4,55.2c-0.1-0.1-0.2-0.1-0.3-0.2C30.3,55.1,30.4,55.2,30.4,55.2z"/>
	<path class="st1" d="M31.1,55.7c-0.1-0.1-0.2-0.1-0.3-0.2C30.9,55.6,31,55.7,31.1,55.7z"/>
	<path class="st1" d="M33.9,57.6c-0.1-0.1-0.2-0.1-0.3-0.2C33.7,57.5,33.8,57.6,33.9,57.6z"/>
	<path class="st1" d="M47.8,62c-0.2,0-0.3,0-0.5,0C47.4,62,47.6,62,47.8,62z"/>
	<path class="st1" d="M69.7,55.1l8.8-20.6h-9.8l-6.1,25C65.1,58.3,67.5,56.8,69.7,55.1z"/>
	<path class="st1" d="M46.9,62c-0.2,0-0.3,0-0.5,0C46.6,61.9,46.7,61.9,46.9,62z"/>
	<path class="st1" d="M31.8,56.2c-0.1-0.1-0.2-0.1-0.3-0.2C31.6,56.1,31.7,56.2,31.8,56.2z"/>
	<path class="st1" d="M33.2,57.2c-0.1-0.1-0.2-0.1-0.3-0.2C33,57.1,33.1,57.1,33.2,57.2z"/>
	<path class="st1" d="M32.5,56.7c-0.1-0.1-0.2-0.1-0.3-0.2C32.3,56.6,32.4,56.7,32.5,56.7z"/>
	<path class="st1" d="M51.6,47.4v13.1c1.2,0.5,2.5,0.8,3.8,1.1c-1.3,0.2-2.5,0.4-3.8,0.5l0,0c2.4-0.1,4.7-0.5,7-1.2L65,34.5h-0.6
		C61.9,39.6,56.7,44.6,51.6,47.4z"/>
	<path class="st1" d="M45.2,0.3c0.5-0.1,1-0.1,1.6-0.2C46.2,0.2,45.7,0.2,45.2,0.3z"/>
	<path class="st1" d="M39,1.9c1.5-0.6,3.1-1,4.7-1.4C42.1,0.9,40.5,1.4,39,1.9z"/>
	<path class="st1" d="M35.4,3.5c0.2-0.1,0.5-0.2,0.7-0.4C35.9,3.3,35.7,3.4,35.4,3.5z"/>
	<path class="st1" d="M32.2,5.5c0.8-0.6,1.7-1.1,2.6-1.6C33.9,4.4,33.1,4.9,32.2,5.5z"/>
	<path class="st1" d="M36.7,2.9c0.3-0.1,0.6-0.3,0.9-0.4C37.3,2.6,37,2.8,36.7,2.9z"/>
	<path class="st1" d="M46,61.9c-0.2,0-0.3,0-0.5-0.1C45.7,61.8,45.8,61.8,46,61.9z"/>
	<path class="st1" d="M30.3,6.9c0.3-0.2,0.6-0.5,0.9-0.7C30.9,6.5,30.6,6.7,30.3,6.9z"/>
	<path class="st1" d="M45.1,61.7c-0.2,0-0.3,0-0.5-0.1C44.8,61.7,45,61.7,45.1,61.7z"/>
	<path class="st2" d="M64.4,34.5H51.6v13C56.7,44.6,61.9,39.6,64.4,34.5z"/>
	<path class="st2" d="M48.1,47.4V34.5H35.5C38,39.5,43.1,44.5,48.1,47.4z"/>
	<path class="st2" d="M56.6,19c-2.6,0-5,1-6.7,2.8c-1.7-1.7-4-2.8-6.6-2.8c-5.2,0-9.4,4.3-9.4,9.6c0,0.8,0.1,1.6,0.3,2.5h31.4
		c0.2-0.8,0.3-1.7,0.3-2.5C66,23.2,61.8,19,56.6,19z"/>
	<path class="st3" d="M38.7,50.4l2.5,10.5l0,0c0.1,0,0.3,0.1,0.4,0.1c0.1,0,0.3,0.1,0.4,0.1c0.1,0,0.3,0.1,0.4,0.1s0.3,0.1,0.4,0.1
		c0.1,0,0.3,0.1,0.4,0.1c0.1,0,0.3,0.1,0.4,0.1c0.1,0,0.3,0.1,0.4,0.1c0.1,0,0.3,0.1,0.4,0.1c0.1,0,0.3,0,0.5,0.1
		c0.1,0,0.3,0,0.4,0.1c0.2,0,0.3,0,0.5,0.1c0.1,0,0.3,0,0.4,0.1c0.2,0,0.3,0,0.5,0c0.1,0,0.3,0,0.4,0c0.2,0,0.3,0,0.5,0
		c0.1,0,0.2,0,0.4,0V59C44.5,56.9,41.2,54,38.7,50.4z"/>
	<path class="st3" d="M51.6,60.5v1.6c1.3-0.1,2.6-0.2,3.8-0.5C54.1,61.3,52.8,61,51.6,60.5z"/>
	<path class="st3" d="M30.4,55.2c0.1,0.1,0.3,0.2,0.4,0.3s0.2,0.1,0.3,0.2c0.1,0.1,0.3,0.2,0.4,0.3c0.1,0.1,0.2,0.1,0.3,0.2
		s0.3,0.2,0.4,0.3s0.2,0.1,0.3,0.2c0.1,0.1,0.3,0.2,0.4,0.3c0.1,0.1,0.2,0.1,0.3,0.2c0.1,0.1,0.3,0.2,0.4,0.3
		c0.1,0.1,0.2,0.1,0.3,0.2c0.1,0.1,0.3,0.2,0.4,0.3c0.1,0.1,0.2,0.1,0.3,0.2c0.1,0.1,0.3,0.2,0.4,0.2c0.1,0.1,0.2,0.1,0.3,0.2
		c0.1,0.1,0.3,0.2,0.4,0.2c0.1,0.1,0.2,0.1,0.3,0.2c0.1,0.1,0.3,0.1,0.4,0.2c0.1,0.1,0.2,0.1,0.3,0.2c0.1,0.1,0.3,0.1,0.4,0.2
		c0,0,0,0,0.1,0l-6-25h-9.8l8.7,20.5l0,0C30.3,55.1,30.4,55.2,30.4,55.2z"/>
	<path class="st3" d="M32.6,31C32.6,31,32.7,31,32.6,31c0.1-15.3,9.9-28,22.8-30.6c-1.8-0.3-3.6-0.5-5.5-0.5c-1.1,0-2.1,0.1-3.2,0.2
		c-0.5,0.1-1,0.1-1.6,0.2c-0.5,0.1-1,0.2-1.5,0.3C42,0.9,40.4,1.4,38.9,2c-0.4,0.1-0.9,0.3-1.3,0.5c-0.3,0.1-0.6,0.3-0.9,0.4
		c-0.2,0.1-0.4,0.2-0.6,0.3s-0.5,0.2-0.7,0.4c-0.2,0.1-0.4,0.2-0.6,0.3c-0.9,0.5-1.8,1-2.6,1.6c-0.4,0.2-0.7,0.5-1.1,0.8
		c-0.3,0.2-0.6,0.4-0.9,0.7c0,0,0,0.1-0.1,0.1c-0.3,0.3-0.6,0.5-1,0.8L29,8c-0.3,0.3-0.7,0.6-1,1l0,0l0,0c-0.3,0.3-0.7,0.7-1,1
		l-0.1,0.1c-0.3,0.3-0.6,0.6-0.8,1c-0.1,0.1-0.1,0.2-0.2,0.2c-1.5,1.8-2.7,3.7-3.8,5.8c-0.1,0.2-0.2,0.4-0.3,0.6
		c-0.2,0.3-0.3,0.7-0.5,1c0,0.1-0.1,0.2-0.1,0.3c-0.1,0.5-0.2,0.8-0.3,1.1c-0.1,0.2-0.1,0.3-0.2,0.5c-0.1,0.3-0.2,0.6-0.3,0.9
		c-0.2,0.5-0.3,1.1-0.5,1.6c0,0.1-0.1,0.3-0.1,0.4c-0.1,0.4-0.2,0.8-0.3,1.2c-0.2,1.1-0.4,2.2-0.5,3.3c0,0.5-0.1,1-0.1,1.5
		s0,1.1,0,1.6l0,0h13.7V31z"/>
	<polygon class="st4" points="51.6,62.1 51.6,60.5 51.6,47.4 51.6,34.5 48.1,34.5 48.1,47.4 48.1,58.9 48.1,62.1 48.1,88 51.6,88 	
		"/>
	<polygon class="st4" points="38.7,50.4 34.9,34.5 31.3,34.5 37.3,59.4 37.3,59.5 44.2,88 44.8,88 47.8,88 41.2,60.9 	"/>
	<path class="st4" d="M32.6,31L32.6,31C32.7,31,32.7,31,32.6,31C32.7,31,32.6,31,32.6,31z"/>
	<polygon class="st4" points="68.6,34.5 65,34.5 58.6,60.9 52,88 55.5,88 62.5,59.5 	"/>
	<path class="st4" d="M17.3,32.1L17.3,32.1L17.3,32.1z"/>
	<path class="st4" d="M30.1,55l-8.7-20.5h-2.6c-0.7,0-1.3-0.4-1.6-1l23.1,54.6H44L30.1,55z"/>
	<path class="st4" d="M18,31.3L18,31.3L18,31.3z"/>
	<path class="st4" d="M17.2,33.1L17.2,33.1L17.2,33.1z"/>
	<path class="st4" d="M17.2,32.3L17.2,32.3L17.2,32.3z"/>
	<path class="st4" d="M18.4,31.1L18.4,31.1L18.4,31.1z"/>
	<path class="st4" d="M17.2,32.6c0,0.1,0,0.2,0,0.3C17.2,32.8,17.2,32.8,17.2,32.6C17.1,32.7,17.1,32.6,17.2,32.6z"/>
	<path class="st4" d="M17.3,32L17.3,32L17.3,32z"/>
	<path class="st4" d="M17.5,31.7L17.5,31.7L17.5,31.7z"/>
	<path class="st4" d="M17.2,32.5L17.2,32.5L17.2,32.5z"/>
	<path class="st4" d="M17.4,31.9C17.4,31.8,17.4,31.8,17.4,31.9C17.4,31.8,17.4,31.8,17.4,31.9z"/>
	<path class="st4" d="M17.7,31.5L17.7,31.5L17.7,31.5z"/>
	<path class="st4" d="M17.8,31.4C17.9,31.4,17.9,31.4,17.8,31.4C17.9,31.4,17.9,31.4,17.8,31.4z"/>
	<path class="st4" d="M17.6,31.6L17.6,31.6L17.6,31.6z"/>
	<path class="st4" d="M18.9,31L18.9,31c-0.1,0-0.2,0-0.4,0C18.6,31.1,18.8,31,18.9,31L18.9,31z"/>
	<path class="st4" d="M82,31.3C82,31.4,82,31.4,82,31.3C82,31.4,82,31.4,82,31.3z"/>
	<path class="st4" d="M82.7,32.4C82.7,32.5,82.7,32.5,82.7,32.4C82.7,32.5,82.7,32.5,82.7,32.4z"/>
	<path class="st4" d="M82.6,32.1L82.6,32.1L82.6,32.1z"/>
	<path class="st4" d="M81.9,31.3L81.9,31.3L81.9,31.3z"/>
	<path class="st4" d="M82.8,32.8c0,0.1,0,0.1,0,0.2C82.7,32.9,82.8,32.8,82.8,32.8z"/>
	<path class="st4" d="M82.7,32.3L82.7,32.3L82.7,32.3z"/>
	<path class="st4" d="M82.1,31.4C82.2,31.5,82.2,31.5,82.1,31.4C82.2,31.5,82.2,31.5,82.1,31.4z"/>
	<path class="st4" d="M82.5,31.8C82.5,31.8,82.5,31.9,82.5,31.8C82.5,31.9,82.5,31.8,82.5,31.8z"/>
	<path class="st4" d="M82.3,31.6L82.3,31.6L82.3,31.6z"/>
	<path class="st4" d="M82.7,32.6c0,0.1,0,0.1,0,0.2C82.8,32.7,82.7,32.6,82.7,32.6z"/>
	<path class="st4" d="M81,34.5h-2.6l-8.7,20.6l-14,33h3.8l23.2-54.6C82.3,34.1,81.7,34.5,81,34.5z"/>
	<path class="st4" d="M82.4,31.7L82.4,31.7L82.4,31.7z"/>
	<path class="st4" d="M82.6,32L82.6,32L82.6,32z"/>
	<path class="st4" d="M81,31c0.1,0,0.2,0,0.3,0C81.3,31,81.1,31,81,31L81,31L81,31L81,31z"/>
	<path class="st5" d="M40.9,97.1L39.6,88L40.9,97.1c0.2,1.7,1.7,3,3.4,3l0,0C42.6,100.1,41.1,98.8,40.9,97.1z"/>
	<path class="st5" d="M55.6,88h-0.1H52h-0.4h-3.5h-0.3h-3l1.3,9.1c0.2,1.7,1.7,3,3.4,3h6.1c1.7,0,3.2-1.3,3.4-3l1.3-9.1h-0.9H55.6z"
		/>
	<path class="st6" d="M46.1,97.1L44.8,88h-0.5h-0.1h-3.7h-0.8l1.3,9.1c0.2,1.7,1.7,3,3.4,3h5.2C47.8,100.1,46.3,98.8,46.1,97.1z"/>
	<path class="st7" d="M18.9,34.5h2.6h9.8h3.6h0.6h12.6h3.5h12.8H65h3.6h9.8H81c0.7,0,1.3-0.4,1.6-1c0.1-0.2,0.1-0.3,0.1-0.5
		c0-0.1,0-0.1,0-0.2l0,0l0,0c0-0.1,0-0.1,0-0.2v-0.1c0,0,0,0,0-0.1v-0.1l0,0v-0.1l0,0c0,0,0-0.1-0.1-0.1l0,0c0,0,0-0.1-0.1-0.1
		c0,0,0,0,0-0.1c0,0,0,0-0.1-0.1c0,0,0,0,0-0.1c0,0,0,0,0-0.1c0,0,0,0-0.1-0.1c0,0,0,0-0.1,0c0,0,0,0-0.1-0.1c0,0,0,0-0.1-0.1
		c0,0,0,0-0.1,0l-0.1-0.1l0,0c-0.2-0.1-0.3-0.1-0.5-0.2c-0.1,0-0.2,0-0.3,0l0,0H65.7H34.3h-1.5h-0.1H19l0,0c-0.1,0-0.2,0-0.3,0
		c-0.1,0-0.1,0-0.2,0l0,0c-0.1,0-0.2,0.1-0.3,0.1l0,0c0,0-0.1,0-0.1,0.1c0,0,0,0-0.1,0c0,0,0,0-0.1,0.1c0,0,0,0-0.1,0.1
		c0,0,0,0-0.1,0c0,0,0,0-0.1,0.1c0,0,0,0-0.1,0.1c0,0,0,0,0,0.1c0,0,0,0-0.1,0.1c0,0,0,0,0,0.1c0,0,0,0.1-0.1,0.1l0,0
		c0,0,0,0.1-0.1,0.1l0,0v0.1l0,0v0.1v0.1c0,0,0,0,0,0.1c0,0.1,0,0.1,0,0.2c0,0.1,0,0.1,0,0.2l0,0V33c0,0.1,0.1,0.2,0.1,0.3
		C17.6,34.1,18.2,34.5,18.9,34.5z"/>
</g>
</svg>
