<?xml version="1.0" encoding="utf-8"?>
<!-- Generator: Adobe Illustrator 19.2.1, SVG Export Plug-In . SVG Version: 6.00 Build 0)  -->
<svg version="1.1" id="Calque_1" xmlns="http://www.w3.org/2000/svg" xmlns:xlink="http://www.w3.org/1999/xlink" x="0px" y="0px"
	 viewBox="0 0 100 100" style="enable-background:new 0 0 100 100;" xml:space="preserve">
<style type="text/css">
	.st0{fill:#010002;}
</style>
<g>
	<g>
		<path class="st0" d="M100.2,10.7c-3.7,1.7-7.6,2.8-11.8,3.3c4.2-2.6,7.5-6.7,9-11.5c-4,2.4-8.4,4.1-13.1,5c-3.8-4-9.1-6.6-15-6.6
			C58,1,48.8,10.3,48.8,21.8c0,1.6,0.2,3.2,0.5,4.7C32.3,25.7,17.1,17.4,7,4.8c-1.8,3.1-2.8,6.6-2.8,10.5c0,7.2,3.6,13.6,9.1,17.3
			C10,32.4,6.8,31.5,4,29.9v0.3c0,10.1,7.1,18.5,16.5,20.4c-1.7,0.5-3.5,0.7-5.4,0.7c-1.3,0-2.6-0.1-3.9-0.4
			c2.6,8.3,10.2,14.3,19.2,14.4c-7,5.6-15.9,8.9-25.5,8.9c-1.7,0-3.3-0.1-4.9-0.3c9.1,5.9,19.9,9.4,31.5,9.4
			C69.3,83.3,90,51.7,90,24.2l-0.1-2.7C93.9,18.6,97.4,14.9,100.2,10.7z"/>
	</g>
</g>
</svg>
